<?xml version="1.0" standalone="no"?>
<!DOCTYPE svg PUBLIC "-//W3C//DTD SVG 20010904//EN"
 "http://www.w3.org/TR/2001/REC-SVG-20010904/DTD/svg10.dtd">
<svg version="1.0" xmlns="http://www.w3.org/2000/svg"
 width="875.000000pt" height="1280.000000pt" viewBox="0 0 875.000000 1280.000000"
 preserveAspectRatio="xMidYMid meet">
<metadata>
Created by potrace 1.15, written by Peter Selinger 2001-2017
</metadata>
<g transform="translate(0.000000,1280.000000) scale(0.100000,-0.100000)"
fill="#000000" stroke="none">
<path d="M4075 12275 c-5 -2 -181 -8 -390 -14 -959 -28 -1295 -51 -1695 -118
-176 -29 -220 -71 -275 -258 -37 -127 -34 -150 21 -216 66 -77 89 -89 144 -79
29 5 94 3 178 -6 122 -12 140 -17 205 -51 42 -22 99 -64 136 -101 79 -78 73
-94 -24 -57 -193 72 -431 50 -695 -65 -335 -146 -541 -395 -657 -794 -58 -200
-76 -366 -76 -691 l0 -280 37 -180 c20 -99 50 -270 66 -380 32 -223 51 -311
145 -682 41 -161 71 -304 81 -387 l16 -131 -40 -186 c-77 -352 -136 -500 -271
-672 -79 -101 -159 -231 -210 -340 -48 -101 -150 -405 -190 -563 -67 -262 -88
-699 -56 -1109 40 -508 78 -706 192 -1015 28 -74 63 -173 78 -220 153 -471
424 -945 728 -1274 344 -372 630 -610 1041 -864 59 -37 67 -46 62 -65 -4 -12
-10 -47 -13 -77 -3 -30 -13 -66 -21 -78 -11 -16 -17 -59 -20 -132 -5 -130 14
-200 85 -306 133 -200 326 -330 624 -423 411 -127 879 -180 1359 -152 323 19
523 55 770 139 360 123 568 278 661 492 35 81 33 260 -4 413 -31 125 -31 127
-14 127 22 0 439 230 532 294 216 148 552 458 792 731 187 213 384 587 518
984 173 513 222 719 282 1191 35 276 36 561 4 915 -44 486 -112 735 -324 1190
-79 170 -128 309 -192 540 -44 158 -45 164 -46 325 -2 149 1 185 34 375 20
116 57 309 82 430 42 201 69 354 156 865 37 215 50 557 30 748 -14 128 -76
358 -128 473 -46 101 -174 283 -275 390 -89 95 -319 234 -469 282 -154 50
-331 61 -491 31 -82 -15 -208 -61 -254 -90 -56 -37 -37 10 54 132 32 43 77 95
99 116 67 59 222 144 406 222 248 105 268 116 295 168 22 40 23 48 13 102 -13
68 -54 137 -108 182 -43 34 -159 78 -248 93 -177 30 -558 50 -1455 76 -294 9
-652 20 -795 25 -256 10 -470 12 -490 5z m-1746 -1545 c82 -26 147 -79 326
-262 158 -162 231 -268 322 -470 120 -269 160 -437 172 -728 16 -375 -25 -617
-146 -885 -54 -117 -131 -255 -153 -272 -8 -7 -53 -24 -100 -38 -216 -65 -369
-123 -559 -211 l-206 -95 -22 26 c-27 30 -28 50 -8 125 12 44 13 79 5 180 -5
69 -16 150 -24 180 -8 30 -29 138 -46 240 -17 102 -53 300 -80 440 -94 494
-131 801 -130 1080 0 100 45 316 83 400 13 30 52 87 86 127 54 64 73 78 156
118 146 70 214 79 324 45z m4393 -176 c57 -15 117 -33 133 -41 51 -26 213
-198 249 -265 34 -62 74 -183 95 -286 33 -158 -1 -525 -99 -1092 -97 -559
-140 -837 -146 -950 -3 -63 -10 -128 -15 -145 -10 -31 -52 -85 -66 -85 -4 0
-224 108 -488 239 l-481 239 -46 109 c-88 202 -166 416 -198 543 -47 182 -34
498 30 755 27 109 47 159 120 305 98 196 132 243 309 423 144 148 202 192 316
246 103 48 114 48 287 5z"/>
</g>
</svg>
